:SAMPLES-PER-SECOND 30
:FRAME-RANGE 1-2643
:FULLY-SPECIFIED
:DEGREES
2478
root  89.8274 37.4288 -17.9329 -173.888 -24.2631 -176.645
RightUpLeg  5.55426 -4.0995 -2.51887
RightLeg  35.3057 9.71056 7.0774
RightFoot  -15.1528 0.413919 15.4605
RightToes  5.38607e-012 1.2921e-014 -6.02303e-014
Spine  0.9486 4.88472 6.79395
Spine1  11.1322 7.99652 -10.8217
HEad  3.72082 39.1525 -10.4028
LeftShoulder1  0.128588 2.88132 -24.4285
LeftArm  -9.95256 19.47 -43.4222
LeftForeArm  23.4178 6.9964 -9.69603
LeftHand  -0.0849616 4.04494 5.8752
RightShoulder  2.509 6.69009 18.7077
RightArm  -17.8882 35.0734 66.9471
RightForeArm  64.7135 -5.27298 2.13586
RightHand  -0.0428581 -5.1876 -17.5186
LeftUpLeg  -36.7252 -2.15463 -4.81114
LeftLeg  20.7178 17.9853 7.67254
LeftFoot  -0.411986 -0.527487 5.53546
LeftToes  -4.79707e-012 -5.93756e-011 -7.55542e-012
2479
root  88.9846 37.179 -19.5761 -174.073 -25.4176 -176.841
RightUpLeg  1.07519 -4.44804 -4.47958
RightLeg  47.9555 10.7245 12.1737
RightFoot  -7.17837 -0.716128 18.207
RightToes  5.38607e-012 1.2921e-014 -6.02303e-014
Spine  1.62473 3.6576 5.14446
Spine1  9.67353 6.34273 -10.1463
HEad  2.75721 40.3734 -10.7175
LeftShoulder1  0.28575 2.36739 -24.513
LeftArm  -9.79565 18.9174 -43.0379
LeftForeArm  23.338 7.47542 -9.75181
LeftHand  -0.085345 4.06091 5.98078
RightShoulder  2.60646 6.7214 19.6744
RightArm  -18.3713 32.6271 67.0215
RightForeArm  65.3618 -5.27968 2.31597
RightHand  -0.0301171 -5.27291 -17.257
LeftUpLeg  -37.2746 -0.945192 -6.24782
LeftLeg  27.392 14.7614 8.4866
LeftFoot  -1.12014 -0.731695 8.24176
LeftToes  -4.79707e-012 -5.93756e-011 -7.55542e-012
2480
root  88.1858 37.1001 -21.0406 -174.81 -27.1318 -177.38
RightUpLeg  -4.36658 -3.72923 -5.52422
RightLeg  59.3209 7.5196 13.0035
RightFoot  3.66638 -2.47833 18.8508
RightToes  5.38607e-012 1.2921e-014 -6.02303e-014
Spine  1.9005 2.85107 3.46086
Spine1  11.1855 5.44824 -9.49584
HEad  2.04679 39.8998 -11.8354
LeftShoulder1  0.5685 1.39009 -23.6745
LeftArm  -10.4017 15.9975 -44.8013
LeftForeArm  25.0129 7.47037 -9.80773
LeftHand  -0.0688186 4.38293 5.79756
RightShoulder  2.55426 6.33932 20.1965
RightArm  -19.2445 30.2827 65.1985
RightForeArm  65.0386 -5.32851 2.53623
RightHand  -0.0494267 -5.14149 -17.2738
LeftUpLeg  -35.5035 -0.0632387 -7.81659
LeftLeg  31.1588 12.4989 8.38348
LeftFoot  -3.72426 -0.669388 10.363
LeftToes  -4.79707e-012 -5.93756e-011 -7.55542e-012
2481
root  87.3742 37.0965 -22.4205 -174.799 -29.0161 -178.537
RightUpLeg  -9.14681 -2.22289 -6.57755
RightLeg  66.9349 4.51654 10.9026
RightFoot  3.61887 -2.42015 18.4754
RightToes  5.38607e-012 1.2921e-014 -6.02303e-014
Spine  2.27727 2.19782 1.18958
Spine1  11.564 4.38707 -8.61443
HEad  4.57156 39.3153 -11.2456
LeftShoulder1  0.626886 1.17988 -23.4758
LeftArm  -10.1589 12.6514 -45.8049
LeftForeArm  27.6021 7.46401 -9.93147
LeftHand  -0.0609312 4.49562 5.38697
RightShoulder  2.49361 5.754 21.3074
RightArm  -20.2984 27.4196 62.0621
RightForeArm  65.3301 -5.36972 2.84537
RightHand  -0.0328529 -5.25562 -18.1089
LeftUpLeg  -33.1963 -1.31091 -9.17008
LeftLeg  33.4957 12.0753 8.83307
LeftFoot  -6.97172 -0.342079 10.042
LeftToes  -4.79707e-012 -5.93756e-011 -7.55542e-012
2482
root  86.474 37.3158 -23.822 -174.604 -31.0386 -179.101
RightUpLeg  -14.1437 -1.48886 -7.12702
RightLeg  71.0028 2.24686 6.45774
RightFoot  1.2421 -1.5457 14.0321
RightToes  5.38607e-012 1.2921e-014 -6.02303e-014
Spine  2.4453 1.58987 0.300698
Spine1  11.285 3.49815 -8.07537
HEad  7.60645 38.6789 -10.241
LeftShoulder1  0.629548 1.20565 -23.9903
LeftArm  -9.02026 9.50169 -46.0261
LeftForeArm  29.7568 6.95702 -10.0706
LeftHand  -0.0791542 4.05506 5.37295
RightShoulder  2.39924 5.2472 21.8642
RightArm  -23.1023 23.3119 58.9158
RightForeArm  66.8663 -5.18915 2.10888
RightHand  0.00376668 -5.48771 -18.5273
LeftUpLeg  -30.0104 -2.72764 -9.89925
LeftLeg  33.5601 11.8537 8.70724
LeftFoot  -9.53837 -0.0928112 9.53079
LeftToes  -4.79707e-012 -5.93756e-011 -7.55542e-012
2483
root  85.5236 37.6758 -25.2286 -174.929 -33.0594 -178.807
RightUpLeg  -18.7224 -0.733511 -6.86964
RightLeg  71.4604 0.419812 0.527136
RightFoot  0.337604 -1.04159 10.1818
RightToes  5.38607e-012 1.2921e-014 -6.02303e-014
Spine  2.84418 1.02068 0.375619
Spine1  10.4633 2.72598 -7.6387
HEad  10.608 38.2516 -9.12422
LeftShoulder1  0.675757 1.05743 -24.0732
LeftArm  -7.90691 7.18615 -46.6769
LeftForeArm  32.1665 2.75725 -10.4681
LeftHand  -0.0927856 3.98478 6.32455
RightShoulder  2.25324 4.56808 22.4555
RightArm  -25.8293 18.5387 55.6938
RightForeArm  66.9004 -5.06545 1.38409
RightHand  0.0107235 -5.53202 -18.5032
LeftUpLeg  -25.9501 -4.33783 -9.76723
LeftLeg  32.1672 11.9976 8.38427
LeftFoot  -11.3947 0.0728854 9.01836
LeftToes  -4.79707e-012 -5.93756e-011 -7.55542e-012
2484
root  84.566 38.0759 -26.6596 -175.383 -35.3054 -178.328
RightUpLeg  -22.4049 -0.168322 -6.59361
RightLeg  68.6599 -1.21305 -4.18695
RightFoot  -1.95256 -0.617149 7.34273
RightToes  5.38607e-012 1.2921e-014 -6.02303e-014
Spine  3.21641 0.382524 -0.0237698
Spine1  9.41699 1.72561 -6.53138
HEad  13.5966 37.8449 -7.78134
LeftShoulder1  0.73358 0.827414 -23.593
LeftArm  -6.71078 5.54468 -47.7083
LeftForeArm  33.6308 -2.33501 -10.8244
LeftHand  -0.116191 3.71121 7.03863
RightShoulder  2.10485 3.86544 23.2225
RightArm  -27.7848 13.6243 52.3353
RightForeArm  65.3616 -5.05927 1.01213
RightHand  0.00645636 -5.50696 -18.3513
LeftUpLeg  -21.3731 -5.59668 -9.47844
LeftLeg  29.7118 11.7479 7.52139
LeftFoot  -12.7974 0.187608 8.67821
LeftToes  -4.79707e-012 -5.93756e-011 -7.55542e-012
2485
root  83.6067 38.3935 -28.1129 -175.79 -37.9506 -177.613
RightUpLeg  -25.312 0.000858678 -6.29425
RightLeg  63.1288 -2.86802 -6.70428
RightFoot  -4.78957 -0.333664 5.25495
RightToes  5.38607e-012 1.2921e-014 -6.02303e-014
Spine  3.27372 -0.381977 -0.439827
Spine1  8.33768 0.621905 -5.35933
HEad  16.3167 37.4077 -5.97349
LeftShoulder1  0.837399 0.369683 -22.4542
LeftArm  -3.4456 4.0235 -49.2208
LeftForeArm  32.5552 -7.70837 -10.5936
LeftHand  -0.158821 3.1121 7.51461
RightShoulder  1.88557 2.89572 24.3139
RightArm  -29.0507 8.83286 48.9566
RightForeArm  63.7492 -5.09247 0.86445
RightHand  0.0199054 -5.59702 -18.1183
LeftUpLeg  -17.0306 -7.12567 -8.88944
LeftLeg  27.2458 11.2521 6.58424
LeftFoot  -14.1044 0.290317 8.49877
LeftToes  -4.79707e-012 -5.93756e-011 -7.55542e-012
2486
root  82.6339 38.5869 -29.5621 -176.122 -40.4573 -176.719
RightUpLeg  -27.5534 0.149468 -6.0434
RightLeg  55.0748 -4.62615 -7.4904
RightFoot  -6.9407 -0.24146 5.05151
RightToes  5.38607e-012 1.2921e-014 -6.02303e-014
Spine  3.00871 -1.12136 -0.809193
Spine1  7.48016 -0.433408 -4.01101
HEad  18.2515 36.6088 -4.70078
LeftShoulder1  0.876351 0.157606 -21.7286
LeftArm  3.80216 1.67292 -50.4814
LeftForeArm  27.1482 -12.8908 -9.2501
LeftHand  -0.177463 2.8483 7.64383
RightShoulder  1.6782 2.11582 24.8679
RightArm  -30.3708 3.96044 46.1878
RightForeArm  62.6149 -5.07661 0.535399
RightHand  0.00912529 -5.53484 -17.6038
LeftUpLeg  -13.3207 -7.56577 -8.07488
LeftLeg  25.3391 9.77603 5.36707
LeftFoot  -15.6025 0.408841 8.44741
LeftToes  -4.79707e-012 -5.93756e-011 -7.55542e-012
2487
root  81.646 38.7012 -31.0061 -176.401 -42.8586 -175.85
RightUpLeg  -28.7422 0.0896427 -5.99865
RightLeg  44.4507 -5.67286 -6.22527
RightFoot  -7.65855 -0.23183 5.58543
RightToes  5.38607e-012 1.2921e-014 -6.02303e-014
Spine  2.49321 -1.72516 -1.07707
Spine1  7.11505 -1.27033 -2.66413
HEad  19.2195 35.2713 -3.50555
LeftShoulder1  0.999926 -0.368295 -21.0692
LeftArm  9.71632 -1.73204 -51.4302
LeftForeArm  22.7472 -16.0016 -7.82443
LeftHand  -0.202859 2.52809 7.88269
RightShoulder  1.45664 1.33516 25.2913
RightArm  -30.6736 -1.05189 43.7565
RightForeArm  60.004 -5.19797 0.721064
RightHand  -0.014555 -5.37837 -17.3503
LeftUpLeg  -9.78005 -6.84654 -7.08325
LeftLeg  23.4365 7.1287 3.85827
LeftFoot  -17.0245 0.518517 8.36518
LeftToes  -4.79707e-012 -5.93756e-011 -7.55542e-012
2488
root  80.6663 38.7253 -32.4292 -176.204 -44.8803 -175.421
RightUpLeg  -29.1205 0.19052 -6.49512
RightLeg  31.5315 -5.09785 -3.59886
RightFoot  -7.44658 -0.269065 6.41555
RightToes  5.38607e-012 1.2921e-014 -6.02303e-014
Spine  1.99035 -2.38671 -1.41133
Spine1  6.84992 -1.98585 -1.9365
HEad  19.2713 34.3013 -2.47527
LeftShoulder1  1.11262 -0.918336 -20.135
LeftArm  13.2249 -5.28314 -51.9878
LeftForeArm  19.8688 -17.5213 -7.0108
LeftHand  -0.223623 2.30569 8.13849
RightShoulder  1.25484 0.601379 26.0188
RightArm  -30.2266 -5.13884 41.7427
RightForeArm  57.2354 -4.52637 1.30138
RightHand  -0.042763 -5.18558 -17.0577
LeftUpLeg  -6.69355 -6.35923 -6.3202
LeftLeg  21.8715 4.80241 2.88447
LeftFoot  -18.2277 0.580801 7.81625
LeftToes  -4.79707e-012 -5.93756e-011 -7.55542e-012
2489
root  79.6674 38.6352 -33.8658 -175.499 -46.265 -175.562
RightUpLeg  -28.9832 -0.117236 -7.10622
RightLeg  17.6316 -3.19589 -1.34056
RightFoot  -7.28987 -0.314176 7.46799
RightToes  5.38607e-012 1.2921e-014 -6.02303e-014
Spine  1.46404 -3.08251 -2.25583
Spine1  6.62443 -2.72016 -1.2723
HEad  18.6941 33.8158 -1.93774
LeftShoulder1  1.23407 -1.59363 -18.9002
LeftArm  13.4374 -7.69781 -52.3186
LeftForeArm  17.708 -17.6374 -6.99517
LeftHand  -0.2385 2.14373 8.29302
RightShoulder  1.11475 0.118219 26.4476
RightArm  -29.9469 -7.80606 40.5377
RightForeArm  55.9977 -3.15872 1.77102
RightHand  -0.0636553 -5.03158 -16.4159
LeftUpLeg  -3.8308 -5.78306 -5.94667
LeftLeg  20.602 2.95045 2.34974
LeftFoot  -19.3556 0.616447 7.12704
LeftToes  -4.79707e-012 -5.93756e-011 -7.55542e-012
2490
root  78.6036 38.4145 -35.3614 -174.777 -47.0421 -175.977
RightUpLeg  -28.7799 -2.21193 -6.54118
RightLeg  5.79941 0.886947 -0.580021
RightFoot  -8.6104 -0.309295 10.4852
RightToes  5.38607e-012 1.2921e-014 -6.02303e-014
Spine  0.749782 -3.82669 -3.57002
Spine1  6.8372 -3.58932 -0.337943
HEad  17.7125 34.0399 -2.43796
LeftShoulder1  1.36619 -2.2887 -18.074
LeftArm  10.7807 -8.45029 -51.8844
LeftForeArm  16.6828 -16.9853 -7.3373
LeftHand  -0.292298 1.26408 8.14707
RightShoulder  1.0481 -0.0680766 26.2381
RightArm  -29.2866 -8.51916 40.0827
RightForeArm  56.1534 -2.89474 2.16125
RightHand  -0.042163 -5.18384 -16.0792
LeftUpLeg  -0.907253 -4.65868 -5.63882
LeftLeg  19.8955 1.12591 1.86601
LeftFoot  -20.5825 0.637985 6.35457
LeftToes  -4.79707e-012 -5.93756e-011 -7.55542e-012
2491
root  77.4619 38.1035 -36.8756 -174.673 -47.2659 -176.045
RightUpLeg  -29.4149 -2.24616 -6.04166
RightLeg  0.330796 1.84268 -0.773586
RightFoot  -10.4664 -0.167426 12.5314
RightToes  5.38607e-012 1.2921e-014 -6.02303e-014
Spine  0.225281 -4.43167 -4.21353
Spine1  7.12128 -4.33234 0.449539
HEad  16.9929 34.855 -3.83332
LeftShoulder1  1.47013 -2.68874 -18.1885
LeftArm  6.2854 -8.79996 -50.5201
LeftForeArm  17.6123 -14.3577 -8.74598
LeftHand  -0.292476 1.13621 7.92033
RightShoulder  1.01481 -0.130233 25.7965
RightArm  -28.852 -7.81565 40.0659
RightForeArm  57.1328 -2.89551 2.34919
RightHand  -0.0164407 -5.3725 -16.0976
LeftUpLeg  2.19598 -4.60151 -5.33015
LeftLeg  20.0222 0.668857 1.74429
LeftFoot  -21.7739 0.56129 4.71118
LeftToes  -4.79707e-012 -5.93756e-011 -7.55542e-012
